<svg xmlns="http://www.w3.org/2000/svg" viewBox="0 0 168 168" width="168" height="168" role="img">
<rect width="168" height="168" fill="#ffffff"/>
<rect x="48" y="8" width="16" height="8" fill="#000000"/>
<rect x="72" y="8" width="8" height="8" fill="#000000"/>
<rect x="88" y="8" width="16" height="8" fill="#000000"/>
<rect x="112" y="8" width="24" height="8" fill="#000000"/>
<rect x="32" y="16" width="24" height="8" fill="#000000"/>
<rect x="64" y="16" width="8" height="8" fill="#000000"/>
<rect x="80" y="16" width="8" height="8" fill="#000000"/>
<rect x="104" y="16" width="24" height="8" fill="#000000"/>
<rect x="136" y="16" width="8" height="8" fill="#000000"/>
<rect x="16" y="24" width="24" height="8" fill="#000000"/>
<rect x="136" y="24" width="16" height="8" fill="#000000"/>
<rect x="8" y="32" width="152" height="8" fill="#000000"/>
<rect x="8" y="40" width="8" height="8" fill="#000000"/>
<rect x="24" y="40" width="16" height="8" fill="#000000"/>
<rect x="128" y="40" width="8" height="8" fill="#000000"/>
<rect x="144" y="40" width="16" height="8" fill="#000000"/>
<rect x="32" y="48" width="8" height="8" fill="#000000"/>
<rect x="48" y="48" width="72" height="8" fill="#000000"/>
<rect x="128" y="48" width="8" height="8" fill="#000000"/>
<rect x="152" y="48" width="8" height="8" fill="#000000"/>
<rect x="8" y="56" width="16" height="8" fill="#000000"/>
<rect x="32" y="56" width="8" height="8" fill="#000000"/>
<rect x="48" y="56" width="8" height="8" fill="#000000"/>
<rect x="112" y="56" width="8" height="8" fill="#000000"/>
<rect x="128" y="56" width="32" height="8" fill="#000000"/>
<rect x="8" y="64" width="16" height="8" fill="#000000"/>
<rect x="32" y="64" width="8" height="8" fill="#000000"/>
<rect x="48" y="64" width="8" height="8" fill="#000000"/>
<rect x="64" y="64" width="40" height="8" fill="#000000"/>
<rect x="112" y="64" width="8" height="8" fill="#000000"/>
<rect x="128" y="64" width="8" height="8" fill="#000000"/>
<rect x="152" y="64" width="8" height="8" fill="#000000"/>
<rect x="32" y="72" width="8" height="8" fill="#000000"/>
<rect x="48" y="72" width="8" height="8" fill="#000000"/>
<rect x="64" y="72" width="8" height="8" fill="#000000"/>
<rect x="96" y="72" width="8" height="8" fill="#000000"/>
<rect x="112" y="72" width="8" height="8" fill="#000000"/>
<rect x="128" y="72" width="16" height="8" fill="#000000"/>
<rect x="16" y="80" width="8" height="8" fill="#000000"/>
<rect x="32" y="80" width="8" height="8" fill="#000000"/>
<rect x="48" y="80" width="8" height="8" fill="#000000"/>
<rect x="64" y="80" width="8" height="8" fill="#000000"/>
<rect x="80" y="80" width="8" height="8" fill="#000000"/>
<rect x="96" y="80" width="8" height="8" fill="#000000"/>
<rect x="112" y="80" width="8" height="8" fill="#000000"/>
<rect x="128" y="80" width="8" height="8" fill="#000000"/>
<rect x="144" y="80" width="8" height="8" fill="#000000"/>
<rect x="32" y="88" width="8" height="8" fill="#000000"/>
<rect x="48" y="88" width="8" height="8" fill="#000000"/>
<rect x="64" y="88" width="8" height="8" fill="#000000"/>
<rect x="96" y="88" width="8" height="8" fill="#000000"/>
<rect x="112" y="88" width="8" height="8" fill="#000000"/>
<rect x="128" y="88" width="8" height="8" fill="#000000"/>
<rect x="144" y="88" width="8" height="8" fill="#000000"/>
<rect x="16" y="96" width="8" height="8" fill="#000000"/>
<rect x="32" y="96" width="8" height="8" fill="#000000"/>
<rect x="48" y="96" width="8" height="8" fill="#000000"/>
<rect x="64" y="96" width="40" height="8" fill="#000000"/>
<rect x="112" y="96" width="8" height="8" fill="#000000"/>
<rect x="128" y="96" width="8" height="8" fill="#000000"/>
<rect x="152" y="96" width="8" height="8" fill="#000000"/>
<rect x="24" y="104" width="16" height="8" fill="#000000"/>
<rect x="48" y="104" width="8" height="8" fill="#000000"/>
<rect x="112" y="104" width="8" height="8" fill="#000000"/>
<rect x="128" y="104" width="8" height="8" fill="#000000"/>
<rect x="8" y="112" width="8" height="8" fill="#000000"/>
<rect x="24" y="112" width="16" height="8" fill="#000000"/>
<rect x="48" y="112" width="72" height="8" fill="#000000"/>
<rect x="128" y="112" width="24" height="8" fill="#000000"/>
<rect x="16" y="120" width="8" height="8" fill="#000000"/>
<rect x="32" y="120" width="8" height="8" fill="#000000"/>
<rect x="128" y="120" width="16" height="8" fill="#000000"/>
<rect x="152" y="120" width="8" height="8" fill="#000000"/>
<rect x="32" y="128" width="112" height="8" fill="#000000"/>
<rect x="56" y="136" width="8" height="8" fill="#000000"/>
<rect x="72" y="136" width="8" height="8" fill="#000000"/>
<rect x="88" y="136" width="16" height="8" fill="#000000"/>
<rect x="112" y="136" width="8" height="8" fill="#000000"/>
<rect x="144" y="136" width="8" height="8" fill="#000000"/>
<rect x="16" y="144" width="8" height="8" fill="#000000"/>
<rect x="72" y="144" width="16" height="8" fill="#000000"/>
<rect x="96" y="144" width="24" height="8" fill="#000000"/>
<rect x="128" y="144" width="8" height="8" fill="#000000"/>
<rect x="144" y="144" width="16" height="8" fill="#000000"/>
<rect x="8" y="152" width="8" height="8" fill="#000000"/>
<rect x="32" y="152" width="8" height="8" fill="#000000"/>
<rect x="64" y="152" width="8" height="8" fill="#000000"/>
<rect x="136" y="152" width="24" height="8" fill="#000000"/>
</svg>