<svg xmlns="http://www.w3.org/2000/svg" viewBox="0 0 454 95" width="454" height="95" role="img">
<rect width="454" height="95" fill="#ffffff"/>
<rect x="20" y="0" width="2" height="70" fill="#000000"/>
<rect x="28" y="0" width="2" height="70" fill="#000000"/>
<rect x="32" y="0" width="6" height="70" fill="#000000"/>
<rect x="40" y="0" width="6" height="70" fill="#000000"/>
<rect x="48" y="0" width="2" height="70" fill="#000000"/>
<rect x="52" y="0" width="2" height="70" fill="#000000"/>
<rect x="56" y="0" width="6" height="70" fill="#000000"/>
<rect x="64" y="0" width="2" height="70" fill="#000000"/>
<rect x="72" y="0" width="2" height="70" fill="#000000"/>
<rect x="76" y="0" width="6" height="70" fill="#000000"/>
<rect x="84" y="0" width="2" height="70" fill="#000000"/>
<rect x="88" y="0" width="6" height="70" fill="#000000"/>
<rect x="96" y="0" width="2" height="70" fill="#000000"/>
<rect x="100" y="0" width="2" height="70" fill="#000000"/>
<rect x="108" y="0" width="6" height="70" fill="#000000"/>
<rect x="116" y="0" width="6" height="70" fill="#000000"/>
<rect x="128" y="0" width="2" height="70" fill="#000000"/>
<rect x="132" y="0" width="2" height="70" fill="#000000"/>
<rect x="136" y="0" width="2" height="70" fill="#000000"/>
<rect x="140" y="0" width="6" height="70" fill="#000000"/>
<rect x="148" y="0" width="6" height="70" fill="#000000"/>
<rect x="156" y="0" width="2" height="70" fill="#000000"/>
<rect x="160" y="0" width="6" height="70" fill="#000000"/>
<rect x="172" y="0" width="2" height="70" fill="#000000"/>
<rect x="176" y="0" width="2" height="70" fill="#000000"/>
<rect x="180" y="0" width="6" height="70" fill="#000000"/>
<rect x="192" y="0" width="6" height="70" fill="#000000"/>
<rect x="200" y="0" width="2" height="70" fill="#000000"/>
<rect x="204" y="0" width="2" height="70" fill="#000000"/>
<rect x="208" y="0" width="2" height="70" fill="#000000"/>
<rect x="212" y="0" width="6" height="70" fill="#000000"/>
<rect x="220" y="0" width="2" height="70" fill="#000000"/>
<rect x="224" y="0" width="2" height="70" fill="#000000"/>
<rect x="232" y="0" width="2" height="70" fill="#000000"/>
<rect x="236" y="0" width="6" height="70" fill="#000000"/>
<rect x="244" y="0" width="6" height="70" fill="#000000"/>
<rect x="256" y="0" width="2" height="70" fill="#000000"/>
<rect x="260" y="0" width="6" height="70" fill="#000000"/>
<rect x="268" y="0" width="2" height="70" fill="#000000"/>
<rect x="272" y="0" width="2" height="70" fill="#000000"/>
<rect x="276" y="0" width="2" height="70" fill="#000000"/>
<rect x="284" y="0" width="6" height="70" fill="#000000"/>
<rect x="292" y="0" width="2" height="70" fill="#000000"/>
<rect x="296" y="0" width="6" height="70" fill="#000000"/>
<rect x="304" y="0" width="2" height="70" fill="#000000"/>
<rect x="308" y="0" width="6" height="70" fill="#000000"/>
<rect x="316" y="0" width="2" height="70" fill="#000000"/>
<rect x="324" y="0" width="2" height="70" fill="#000000"/>
<rect x="328" y="0" width="2" height="70" fill="#000000"/>
<rect x="332" y="0" width="6" height="70" fill="#000000"/>
<rect x="340" y="0" width="2" height="70" fill="#000000"/>
<rect x="344" y="0" width="6" height="70" fill="#000000"/>
<rect x="356" y="0" width="2" height="70" fill="#000000"/>
<rect x="360" y="0" width="2" height="70" fill="#000000"/>
<rect x="364" y="0" width="6" height="70" fill="#000000"/>
<rect x="372" y="0" width="6" height="70" fill="#000000"/>
<rect x="380" y="0" width="6" height="70" fill="#000000"/>
<rect x="392" y="0" width="2" height="70" fill="#000000"/>
<rect x="396" y="0" width="2" height="70" fill="#000000"/>
<rect x="400" y="0" width="2" height="70" fill="#000000"/>
<rect x="404" y="0" width="2" height="70" fill="#000000"/>
<rect x="412" y="0" width="2" height="70" fill="#000000"/>
<rect x="416" y="0" width="6" height="70" fill="#000000"/>
<rect x="424" y="0" width="6" height="70" fill="#000000"/>
<rect x="432" y="0" width="2" height="70" fill="#000000"/>
<text x="227.0" y="84" text-anchor="middle" font-family="ui-monospace, SFMono-Regular, Menlo, Consolas, monospace" font-size="13" letter-spacing="1" fill="#0f172a">*BLUEWAY 123*</text>
</svg>