<svg xmlns="http://www.w3.org/2000/svg" viewBox="0 0 600 600" width="600" height="600" role="img">
<rect width="600" height="600" fill="#ffffff"/>
<rect x="16" y="16" width="32" height="8" fill="#000000"/>
<rect x="80" y="16" width="32" height="8" fill="#000000"/>
<rect x="144" y="16" width="32" height="8" fill="#000000"/>
<rect x="208" y="16" width="32" height="8" fill="#000000"/>
<rect x="272" y="16" width="32" height="8" fill="#000000"/>
<rect x="336" y="16" width="32" height="8" fill="#000000"/>
<rect x="400" y="16" width="32" height="8" fill="#000000"/>
<rect x="464" y="16" width="32" height="8" fill="#000000"/>
<rect x="528" y="16" width="32" height="8" fill="#000000"/>
<rect x="16" y="24" width="32" height="8" fill="#000000"/>
<rect x="80" y="24" width="32" height="8" fill="#000000"/>
<rect x="144" y="24" width="32" height="8" fill="#000000"/>
<rect x="208" y="24" width="32" height="8" fill="#000000"/>
<rect x="272" y="24" width="32" height="8" fill="#000000"/>
<rect x="336" y="24" width="32" height="8" fill="#000000"/>
<rect x="400" y="24" width="32" height="8" fill="#000000"/>
<rect x="464" y="24" width="32" height="8" fill="#000000"/>
<rect x="528" y="24" width="32" height="8" fill="#000000"/>
<rect x="16" y="32" width="32" height="8" fill="#000000"/>
<rect x="80" y="32" width="32" height="8" fill="#000000"/>
<rect x="144" y="32" width="32" height="8" fill="#000000"/>
<rect x="208" y="32" width="32" height="8" fill="#000000"/>
<rect x="272" y="32" width="32" height="8" fill="#000000"/>
<rect x="336" y="32" width="32" height="8" fill="#000000"/>
<rect x="400" y="32" width="32" height="8" fill="#000000"/>
<rect x="464" y="32" width="32" height="8" fill="#000000"/>
<rect x="528" y="32" width="32" height="8" fill="#000000"/>
<rect x="16" y="40" width="64" height="8" fill="#000000"/>
<rect x="176" y="40" width="64" height="8" fill="#000000"/>
<rect x="304" y="40" width="32" height="8" fill="#000000"/>
<rect x="368" y="40" width="32" height="8" fill="#000000"/>
<rect x="528" y="40" width="56" height="8" fill="#000000"/>
<rect x="16" y="48" width="64" height="8" fill="#000000"/>
<rect x="176" y="48" width="64" height="8" fill="#000000"/>
<rect x="304" y="48" width="32" height="8" fill="#000000"/>
<rect x="368" y="48" width="32" height="8" fill="#000000"/>
<rect x="528" y="48" width="56" height="8" fill="#000000"/>
<rect x="16" y="56" width="64" height="8" fill="#000000"/>
<rect x="176" y="56" width="64" height="8" fill="#000000"/>
<rect x="304" y="56" width="32" height="8" fill="#000000"/>
<rect x="368" y="56" width="32" height="8" fill="#000000"/>
<rect x="528" y="56" width="56" height="8" fill="#000000"/>
<rect x="16" y="64" width="64" height="8" fill="#000000"/>
<rect x="176" y="64" width="64" height="8" fill="#000000"/>
<rect x="304" y="64" width="32" height="8" fill="#000000"/>
<rect x="368" y="64" width="32" height="8" fill="#000000"/>
<rect x="528" y="64" width="56" height="8" fill="#000000"/>
<rect x="16" y="72" width="32" height="8" fill="#000000"/>
<rect x="144" y="72" width="32" height="8" fill="#000000"/>
<rect x="208" y="72" width="32" height="8" fill="#000000"/>
<rect x="272" y="72" width="64" height="8" fill="#000000"/>
<rect x="400" y="72" width="32" height="8" fill="#000000"/>
<rect x="464" y="72" width="32" height="8" fill="#000000"/>
<rect x="528" y="72" width="32" height="8" fill="#000000"/>
<rect x="16" y="80" width="32" height="8" fill="#000000"/>
<rect x="144" y="80" width="32" height="8" fill="#000000"/>
<rect x="208" y="80" width="32" height="8" fill="#000000"/>
<rect x="272" y="80" width="64" height="8" fill="#000000"/>
<rect x="400" y="80" width="32" height="8" fill="#000000"/>
<rect x="464" y="80" width="32" height="8" fill="#000000"/>
<rect x="528" y="80" width="32" height="8" fill="#000000"/>
<rect x="16" y="88" width="32" height="8" fill="#000000"/>
<rect x="144" y="88" width="32" height="8" fill="#000000"/>
<rect x="208" y="88" width="32" height="8" fill="#000000"/>
<rect x="272" y="88" width="64" height="8" fill="#000000"/>
<rect x="400" y="88" width="32" height="8" fill="#000000"/>
<rect x="464" y="88" width="32" height="8" fill="#000000"/>
<rect x="528" y="88" width="32" height="8" fill="#000000"/>
<rect x="16" y="96" width="32" height="8" fill="#000000"/>
<rect x="144" y="96" width="32" height="8" fill="#000000"/>
<rect x="208" y="96" width="32" height="8" fill="#000000"/>
<rect x="272" y="96" width="64" height="8" fill="#000000"/>
<rect x="400" y="96" width="32" height="8" fill="#000000"/>
<rect x="464" y="96" width="32" height="8" fill="#000000"/>
<rect x="528" y="96" width="32" height="8" fill="#000000"/>
<rect x="16" y="104" width="32" height="8" fill="#000000"/>
<rect x="80" y="104" width="64" height="8" fill="#000000"/>
<rect x="240" y="104" width="32" height="8" fill="#000000"/>
<rect x="368" y="104" width="32" height="8" fill="#000000"/>
<rect x="432" y="104" width="152" height="8" fill="#000000"/>
<rect x="16" y="112" width="32" height="8" fill="#000000"/>
<rect x="80" y="112" width="64" height="8" fill="#000000"/>
<rect x="240" y="112" width="32" height="8" fill="#000000"/>
<rect x="368" y="112" width="32" height="8" fill="#000000"/>
<rect x="432" y="112" width="152" height="8" fill="#000000"/>
<rect x="16" y="120" width="32" height="8" fill="#000000"/>
<rect x="80" y="120" width="64" height="8" fill="#000000"/>
<rect x="240" y="120" width="32" height="8" fill="#000000"/>
<rect x="368" y="120" width="32" height="8" fill="#000000"/>
<rect x="432" y="120" width="152" height="8" fill="#000000"/>
<rect x="16" y="128" width="32" height="8" fill="#000000"/>
<rect x="80" y="128" width="64" height="8" fill="#000000"/>
<rect x="240" y="128" width="32" height="8" fill="#000000"/>
<rect x="368" y="128" width="32" height="8" fill="#000000"/>
<rect x="432" y="128" width="152" height="8" fill="#000000"/>
<rect x="16" y="136" width="96" height="8" fill="#000000"/>
<rect x="176" y="136" width="64" height="8" fill="#000000"/>
<rect x="336" y="136" width="32" height="8" fill="#000000"/>
<rect x="400" y="136" width="32" height="8" fill="#000000"/>
<rect x="496" y="136" width="32" height="8" fill="#000000"/>
<rect x="16" y="144" width="96" height="8" fill="#000000"/>
<rect x="176" y="144" width="64" height="8" fill="#000000"/>
<rect x="336" y="144" width="32" height="8" fill="#000000"/>
<rect x="400" y="144" width="32" height="8" fill="#000000"/>
<rect x="496" y="144" width="32" height="8" fill="#000000"/>
<rect x="16" y="152" width="96" height="8" fill="#000000"/>
<rect x="176" y="152" width="64" height="8" fill="#000000"/>
<rect x="336" y="152" width="32" height="8" fill="#000000"/>
<rect x="400" y="152" width="32" height="8" fill="#000000"/>
<rect x="496" y="152" width="32" height="8" fill="#000000"/>
<rect x="16" y="160" width="96" height="8" fill="#000000"/>
<rect x="176" y="160" width="64" height="8" fill="#000000"/>
<rect x="336" y="160" width="32" height="8" fill="#000000"/>
<rect x="400" y="160" width="32" height="8" fill="#000000"/>
<rect x="496" y="160" width="32" height="8" fill="#000000"/>
<rect x="16" y="168" width="32" height="8" fill="#000000"/>
<rect x="112" y="168" width="96" height="8" fill="#000000"/>
<rect x="272" y="168" width="64" height="8" fill="#000000"/>
<rect x="400" y="168" width="64" height="8" fill="#000000"/>
<rect x="560" y="168" width="24" height="8" fill="#000000"/>
<rect x="16" y="176" width="32" height="8" fill="#000000"/>
<rect x="112" y="176" width="96" height="8" fill="#000000"/>
<rect x="272" y="176" width="64" height="8" fill="#000000"/>
<rect x="400" y="176" width="64" height="8" fill="#000000"/>
<rect x="560" y="176" width="24" height="8" fill="#000000"/>
<rect x="16" y="184" width="32" height="8" fill="#000000"/>
<rect x="112" y="184" width="96" height="8" fill="#000000"/>
<rect x="272" y="184" width="64" height="8" fill="#000000"/>
<rect x="400" y="184" width="64" height="8" fill="#000000"/>
<rect x="560" y="184" width="24" height="8" fill="#000000"/>
<rect x="16" y="192" width="32" height="8" fill="#000000"/>
<rect x="112" y="192" width="96" height="8" fill="#000000"/>
<rect x="272" y="192" width="64" height="8" fill="#000000"/>
<rect x="400" y="192" width="64" height="8" fill="#000000"/>
<rect x="560" y="192" width="24" height="8" fill="#000000"/>
<rect x="16" y="200" width="32" height="8" fill="#000000"/>
<rect x="144" y="200" width="32" height="8" fill="#000000"/>
<rect x="208" y="200" width="64" height="8" fill="#000000"/>
<rect x="304" y="200" width="32" height="8" fill="#000000"/>
<rect x="368" y="200" width="32" height="8" fill="#000000"/>
<rect x="432" y="200" width="128" height="8" fill="#000000"/>
<rect x="16" y="208" width="32" height="8" fill="#000000"/>
<rect x="144" y="208" width="32" height="8" fill="#000000"/>
<rect x="208" y="208" width="64" height="8" fill="#000000"/>
<rect x="304" y="208" width="32" height="8" fill="#000000"/>
<rect x="368" y="208" width="32" height="8" fill="#000000"/>
<rect x="432" y="208" width="128" height="8" fill="#000000"/>
<rect x="16" y="216" width="32" height="8" fill="#000000"/>
<rect x="144" y="216" width="32" height="8" fill="#000000"/>
<rect x="208" y="216" width="64" height="8" fill="#000000"/>
<rect x="304" y="216" width="32" height="8" fill="#000000"/>
<rect x="368" y="216" width="32" height="8" fill="#000000"/>
<rect x="432" y="216" width="128" height="8" fill="#000000"/>
<rect x="16" y="224" width="32" height="8" fill="#000000"/>
<rect x="144" y="224" width="32" height="8" fill="#000000"/>
<rect x="208" y="224" width="64" height="8" fill="#000000"/>
<rect x="304" y="224" width="32" height="8" fill="#000000"/>
<rect x="368" y="224" width="32" height="8" fill="#000000"/>
<rect x="432" y="224" width="128" height="8" fill="#000000"/>
<rect x="16" y="232" width="32" height="8" fill="#000000"/>
<rect x="80" y="232" width="64" height="8" fill="#000000"/>
<rect x="176" y="232" width="32" height="8" fill="#000000"/>
<rect x="240" y="232" width="32" height="8" fill="#000000"/>
<rect x="368" y="232" width="96" height="8" fill="#000000"/>
<rect x="528" y="232" width="56" height="8" fill="#000000"/>
<rect x="16" y="240" width="32" height="8" fill="#000000"/>
<rect x="80" y="240" width="64" height="8" fill="#000000"/>
<rect x="176" y="240" width="32" height="8" fill="#000000"/>
<rect x="240" y="240" width="32" height="8" fill="#000000"/>
<rect x="368" y="240" width="96" height="8" fill="#000000"/>
<rect x="528" y="240" width="56" height="8" fill="#000000"/>
<rect x="16" y="248" width="32" height="8" fill="#000000"/>
<rect x="80" y="248" width="64" height="8" fill="#000000"/>
<rect x="176" y="248" width="32" height="8" fill="#000000"/>
<rect x="240" y="248" width="32" height="8" fill="#000000"/>
<rect x="368" y="248" width="96" height="8" fill="#000000"/>
<rect x="528" y="248" width="56" height="8" fill="#000000"/>
<rect x="16" y="256" width="32" height="8" fill="#000000"/>
<rect x="80" y="256" width="64" height="8" fill="#000000"/>
<rect x="176" y="256" width="32" height="8" fill="#000000"/>
<rect x="240" y="256" width="32" height="8" fill="#000000"/>
<rect x="368" y="256" width="96" height="8" fill="#000000"/>
<rect x="528" y="256" width="56" height="8" fill="#000000"/>
<rect x="16" y="264" width="96" height="8" fill="#000000"/>
<rect x="144" y="264" width="32" height="8" fill="#000000"/>
<rect x="304" y="264" width="32" height="8" fill="#000000"/>
<rect x="368" y="264" width="32" height="8" fill="#000000"/>
<rect x="432" y="264" width="32" height="8" fill="#000000"/>
<rect x="528" y="264" width="32" height="8" fill="#000000"/>
<rect x="16" y="272" width="96" height="8" fill="#000000"/>
<rect x="144" y="272" width="32" height="8" fill="#000000"/>
<rect x="304" y="272" width="32" height="8" fill="#000000"/>
<rect x="368" y="272" width="32" height="8" fill="#000000"/>
<rect x="432" y="272" width="32" height="8" fill="#000000"/>
<rect x="528" y="272" width="32" height="8" fill="#000000"/>
<rect x="16" y="280" width="96" height="8" fill="#000000"/>
<rect x="144" y="280" width="32" height="8" fill="#000000"/>
<rect x="304" y="280" width="32" height="8" fill="#000000"/>
<rect x="368" y="280" width="32" height="8" fill="#000000"/>
<rect x="432" y="280" width="32" height="8" fill="#000000"/>
<rect x="528" y="280" width="32" height="8" fill="#000000"/>
<rect x="16" y="288" width="96" height="8" fill="#000000"/>
<rect x="144" y="288" width="32" height="8" fill="#000000"/>
<rect x="304" y="288" width="32" height="8" fill="#000000"/>
<rect x="368" y="288" width="32" height="8" fill="#000000"/>
<rect x="432" y="288" width="32" height="8" fill="#000000"/>
<rect x="528" y="288" width="32" height="8" fill="#000000"/>
<rect x="16" y="296" width="96" height="8" fill="#000000"/>
<rect x="144" y="296" width="64" height="8" fill="#000000"/>
<rect x="240" y="296" width="32" height="8" fill="#000000"/>
<rect x="432" y="296" width="64" height="8" fill="#000000"/>
<rect x="528" y="296" width="56" height="8" fill="#000000"/>
<rect x="16" y="304" width="96" height="8" fill="#000000"/>
<rect x="144" y="304" width="64" height="8" fill="#000000"/>
<rect x="240" y="304" width="32" height="8" fill="#000000"/>
<rect x="432" y="304" width="64" height="8" fill="#000000"/>
<rect x="528" y="304" width="56" height="8" fill="#000000"/>
<rect x="16" y="312" width="96" height="8" fill="#000000"/>
<rect x="144" y="312" width="64" height="8" fill="#000000"/>
<rect x="240" y="312" width="32" height="8" fill="#000000"/>
<rect x="432" y="312" width="64" height="8" fill="#000000"/>
<rect x="528" y="312" width="56" height="8" fill="#000000"/>
<rect x="16" y="320" width="96" height="8" fill="#000000"/>
<rect x="144" y="320" width="64" height="8" fill="#000000"/>
<rect x="240" y="320" width="32" height="8" fill="#000000"/>
<rect x="432" y="320" width="64" height="8" fill="#000000"/>
<rect x="528" y="320" width="56" height="8" fill="#000000"/>
<rect x="16" y="328" width="32" height="8" fill="#000000"/>
<rect x="80" y="328" width="32" height="8" fill="#000000"/>
<rect x="144" y="328" width="32" height="8" fill="#000000"/>
<rect x="240" y="328" width="32" height="8" fill="#000000"/>
<rect x="336" y="328" width="32" height="8" fill="#000000"/>
<rect x="432" y="328" width="32" height="8" fill="#000000"/>
<rect x="16" y="336" width="32" height="8" fill="#000000"/>
<rect x="80" y="336" width="32" height="8" fill="#000000"/>
<rect x="144" y="336" width="32" height="8" fill="#000000"/>
<rect x="240" y="336" width="32" height="8" fill="#000000"/>
<rect x="336" y="336" width="32" height="8" fill="#000000"/>
<rect x="432" y="336" width="32" height="8" fill="#000000"/>
<rect x="16" y="344" width="32" height="8" fill="#000000"/>
<rect x="80" y="344" width="32" height="8" fill="#000000"/>
<rect x="144" y="344" width="32" height="8" fill="#000000"/>
<rect x="240" y="344" width="32" height="8" fill="#000000"/>
<rect x="336" y="344" width="32" height="8" fill="#000000"/>
<rect x="432" y="344" width="32" height="8" fill="#000000"/>
<rect x="16" y="352" width="32" height="8" fill="#000000"/>
<rect x="80" y="352" width="32" height="8" fill="#000000"/>
<rect x="144" y="352" width="32" height="8" fill="#000000"/>
<rect x="240" y="352" width="32" height="8" fill="#000000"/>
<rect x="336" y="352" width="32" height="8" fill="#000000"/>
<rect x="432" y="352" width="32" height="8" fill="#000000"/>
<rect x="16" y="360" width="32" height="8" fill="#000000"/>
<rect x="80" y="360" width="32" height="8" fill="#000000"/>
<rect x="176" y="360" width="32" height="8" fill="#000000"/>
<rect x="272" y="360" width="96" height="8" fill="#000000"/>
<rect x="400" y="360" width="32" height="8" fill="#000000"/>
<rect x="464" y="360" width="120" height="8" fill="#000000"/>
<rect x="16" y="368" width="32" height="8" fill="#000000"/>
<rect x="80" y="368" width="32" height="8" fill="#000000"/>
<rect x="176" y="368" width="32" height="8" fill="#000000"/>
<rect x="272" y="368" width="96" height="8" fill="#000000"/>
<rect x="400" y="368" width="32" height="8" fill="#000000"/>
<rect x="464" y="368" width="120" height="8" fill="#000000"/>
<rect x="16" y="376" width="32" height="8" fill="#000000"/>
<rect x="80" y="376" width="32" height="8" fill="#000000"/>
<rect x="176" y="376" width="32" height="8" fill="#000000"/>
<rect x="272" y="376" width="96" height="8" fill="#000000"/>
<rect x="400" y="376" width="32" height="8" fill="#000000"/>
<rect x="464" y="376" width="120" height="8" fill="#000000"/>
<rect x="16" y="384" width="32" height="8" fill="#000000"/>
<rect x="80" y="384" width="32" height="8" fill="#000000"/>
<rect x="176" y="384" width="32" height="8" fill="#000000"/>
<rect x="272" y="384" width="96" height="8" fill="#000000"/>
<rect x="400" y="384" width="32" height="8" fill="#000000"/>
<rect x="464" y="384" width="120" height="8" fill="#000000"/>
<rect x="16" y="392" width="32" height="8" fill="#000000"/>
<rect x="80" y="392" width="32" height="8" fill="#000000"/>
<rect x="272" y="392" width="32" height="8" fill="#000000"/>
<rect x="336" y="392" width="32" height="8" fill="#000000"/>
<rect x="432" y="392" width="32" height="8" fill="#000000"/>
<rect x="16" y="400" width="32" height="8" fill="#000000"/>
<rect x="80" y="400" width="32" height="8" fill="#000000"/>
<rect x="272" y="400" width="32" height="8" fill="#000000"/>
<rect x="336" y="400" width="32" height="8" fill="#000000"/>
<rect x="432" y="400" width="32" height="8" fill="#000000"/>
<rect x="16" y="408" width="32" height="8" fill="#000000"/>
<rect x="80" y="408" width="32" height="8" fill="#000000"/>
<rect x="272" y="408" width="32" height="8" fill="#000000"/>
<rect x="336" y="408" width="32" height="8" fill="#000000"/>
<rect x="432" y="408" width="32" height="8" fill="#000000"/>
<rect x="16" y="416" width="32" height="8" fill="#000000"/>
<rect x="80" y="416" width="32" height="8" fill="#000000"/>
<rect x="272" y="416" width="32" height="8" fill="#000000"/>
<rect x="336" y="416" width="32" height="8" fill="#000000"/>
<rect x="432" y="416" width="32" height="8" fill="#000000"/>
<rect x="16" y="424" width="128" height="8" fill="#000000"/>
<rect x="176" y="424" width="64" height="8" fill="#000000"/>
<rect x="272" y="424" width="32" height="8" fill="#000000"/>
<rect x="368" y="424" width="64" height="8" fill="#000000"/>
<rect x="464" y="424" width="64" height="8" fill="#000000"/>
<rect x="560" y="424" width="24" height="8" fill="#000000"/>
<rect x="16" y="432" width="128" height="8" fill="#000000"/>
<rect x="176" y="432" width="64" height="8" fill="#000000"/>
<rect x="272" y="432" width="32" height="8" fill="#000000"/>
<rect x="368" y="432" width="64" height="8" fill="#000000"/>
<rect x="464" y="432" width="64" height="8" fill="#000000"/>
<rect x="560" y="432" width="24" height="8" fill="#000000"/>
<rect x="16" y="440" width="128" height="8" fill="#000000"/>
<rect x="176" y="440" width="64" height="8" fill="#000000"/>
<rect x="272" y="440" width="32" height="8" fill="#000000"/>
<rect x="368" y="440" width="64" height="8" fill="#000000"/>
<rect x="464" y="440" width="64" height="8" fill="#000000"/>
<rect x="560" y="440" width="24" height="8" fill="#000000"/>
<rect x="16" y="448" width="128" height="8" fill="#000000"/>
<rect x="176" y="448" width="64" height="8" fill="#000000"/>
<rect x="272" y="448" width="32" height="8" fill="#000000"/>
<rect x="368" y="448" width="64" height="8" fill="#000000"/>
<rect x="464" y="448" width="64" height="8" fill="#000000"/>
<rect x="560" y="448" width="24" height="8" fill="#000000"/>
<rect x="16" y="456" width="32" height="8" fill="#000000"/>
<rect x="144" y="456" width="64" height="8" fill="#000000"/>
<rect x="240" y="456" width="96" height="8" fill="#000000"/>
<rect x="368" y="456" width="160" height="8" fill="#000000"/>
<rect x="16" y="464" width="32" height="8" fill="#000000"/>
<rect x="144" y="464" width="64" height="8" fill="#000000"/>
<rect x="240" y="464" width="96" height="8" fill="#000000"/>
<rect x="368" y="464" width="160" height="8" fill="#000000"/>
<rect x="16" y="472" width="32" height="8" fill="#000000"/>
<rect x="144" y="472" width="64" height="8" fill="#000000"/>
<rect x="240" y="472" width="96" height="8" fill="#000000"/>
<rect x="368" y="472" width="160" height="8" fill="#000000"/>
<rect x="16" y="480" width="32" height="8" fill="#000000"/>
<rect x="144" y="480" width="64" height="8" fill="#000000"/>
<rect x="240" y="480" width="96" height="8" fill="#000000"/>
<rect x="368" y="480" width="160" height="8" fill="#000000"/>
<rect x="16" y="488" width="64" height="8" fill="#000000"/>
<rect x="112" y="488" width="32" height="8" fill="#000000"/>
<rect x="304" y="488" width="32" height="8" fill="#000000"/>
<rect x="368" y="488" width="32" height="8" fill="#000000"/>
<rect x="464" y="488" width="120" height="8" fill="#000000"/>
<rect x="16" y="496" width="64" height="8" fill="#000000"/>
<rect x="112" y="496" width="32" height="8" fill="#000000"/>
<rect x="304" y="496" width="32" height="8" fill="#000000"/>
<rect x="368" y="496" width="32" height="8" fill="#000000"/>
<rect x="464" y="496" width="120" height="8" fill="#000000"/>
<rect x="16" y="504" width="64" height="8" fill="#000000"/>
<rect x="112" y="504" width="32" height="8" fill="#000000"/>
<rect x="304" y="504" width="32" height="8" fill="#000000"/>
<rect x="368" y="504" width="32" height="8" fill="#000000"/>
<rect x="464" y="504" width="120" height="8" fill="#000000"/>
<rect x="16" y="512" width="64" height="8" fill="#000000"/>
<rect x="112" y="512" width="32" height="8" fill="#000000"/>
<rect x="304" y="512" width="32" height="8" fill="#000000"/>
<rect x="368" y="512" width="32" height="8" fill="#000000"/>
<rect x="464" y="512" width="120" height="8" fill="#000000"/>
<rect x="16" y="520" width="64" height="8" fill="#000000"/>
<rect x="144" y="520" width="32" height="8" fill="#000000"/>
<rect x="208" y="520" width="64" height="8" fill="#000000"/>
<rect x="336" y="520" width="32" height="8" fill="#000000"/>
<rect x="432" y="520" width="32" height="8" fill="#000000"/>
<rect x="496" y="520" width="32" height="8" fill="#000000"/>
<rect x="16" y="528" width="64" height="8" fill="#000000"/>
<rect x="144" y="528" width="32" height="8" fill="#000000"/>
<rect x="208" y="528" width="64" height="8" fill="#000000"/>
<rect x="336" y="528" width="32" height="8" fill="#000000"/>
<rect x="432" y="528" width="32" height="8" fill="#000000"/>
<rect x="496" y="528" width="32" height="8" fill="#000000"/>
<rect x="16" y="536" width="64" height="8" fill="#000000"/>
<rect x="144" y="536" width="32" height="8" fill="#000000"/>
<rect x="208" y="536" width="64" height="8" fill="#000000"/>
<rect x="336" y="536" width="32" height="8" fill="#000000"/>
<rect x="432" y="536" width="32" height="8" fill="#000000"/>
<rect x="496" y="536" width="32" height="8" fill="#000000"/>
<rect x="16" y="544" width="64" height="8" fill="#000000"/>
<rect x="144" y="544" width="32" height="8" fill="#000000"/>
<rect x="208" y="544" width="64" height="8" fill="#000000"/>
<rect x="336" y="544" width="32" height="8" fill="#000000"/>
<rect x="432" y="544" width="32" height="8" fill="#000000"/>
<rect x="496" y="544" width="32" height="8" fill="#000000"/>
<rect x="16" y="552" width="568" height="8" fill="#000000"/>
<rect x="16" y="560" width="568" height="8" fill="#000000"/>
<rect x="16" y="568" width="568" height="8" fill="#000000"/>
<rect x="16" y="576" width="568" height="8" fill="#000000"/>
</svg>