<svg xmlns="http://www.w3.org/2000/svg" viewBox="0 0 326 111" width="326" height="111" role="img">
<rect width="326" height="111" fill="#000000"/>
<rect x="8" y="8" width="310" height="95" fill="#ffffff"/>
<rect x="28" y="8" width="2" height="70" fill="#000000"/>
<rect x="32" y="8" width="2" height="70" fill="#000000"/>
<rect x="36" y="8" width="6" height="70" fill="#000000"/>
<rect x="48" y="8" width="2" height="70" fill="#000000"/>
<rect x="52" y="8" width="2" height="70" fill="#000000"/>
<rect x="60" y="8" width="2" height="70" fill="#000000"/>
<rect x="64" y="8" width="6" height="70" fill="#000000"/>
<rect x="72" y="8" width="2" height="70" fill="#000000"/>
<rect x="76" y="8" width="6" height="70" fill="#000000"/>
<rect x="88" y="8" width="2" height="70" fill="#000000"/>
<rect x="92" y="8" width="6" height="70" fill="#000000"/>
<rect x="104" y="8" width="2" height="70" fill="#000000"/>
<rect x="108" y="8" width="2" height="70" fill="#000000"/>
<rect x="116" y="8" width="2" height="70" fill="#000000"/>
<rect x="120" y="8" width="6" height="70" fill="#000000"/>
<rect x="128" y="8" width="6" height="70" fill="#000000"/>
<rect x="136" y="8" width="2" height="70" fill="#000000"/>
<rect x="144" y="8" width="2" height="70" fill="#000000"/>
<rect x="152" y="8" width="6" height="70" fill="#000000"/>
<rect x="164" y="8" width="2" height="70" fill="#000000"/>
<rect x="168" y="8" width="2" height="70" fill="#000000"/>
<rect x="172" y="8" width="6" height="70" fill="#000000"/>
<rect x="180" y="8" width="2" height="70" fill="#000000"/>
<rect x="188" y="8" width="2" height="70" fill="#000000"/>
<rect x="192" y="8" width="6" height="70" fill="#000000"/>
<rect x="204" y="8" width="2" height="70" fill="#000000"/>
<rect x="208" y="8" width="6" height="70" fill="#000000"/>
<rect x="216" y="8" width="2" height="70" fill="#000000"/>
<rect x="220" y="8" width="6" height="70" fill="#000000"/>
<rect x="228" y="8" width="6" height="70" fill="#000000"/>
<rect x="236" y="8" width="2" height="70" fill="#000000"/>
<rect x="244" y="8" width="2" height="70" fill="#000000"/>
<rect x="252" y="8" width="6" height="70" fill="#000000"/>
<rect x="260" y="8" width="2" height="70" fill="#000000"/>
<rect x="264" y="8" width="2" height="70" fill="#000000"/>
<rect x="272" y="8" width="6" height="70" fill="#000000"/>
<rect x="284" y="8" width="2" height="70" fill="#000000"/>
<rect x="288" y="8" width="6" height="70" fill="#000000"/>
<rect x="296" y="8" width="2" height="70" fill="#000000"/>
<text x="163.0" y="95" text-anchor="middle" font-family="ui-monospace, SFMono-Regular, Menlo, Consolas, monospace" font-size="15" letter-spacing="2" fill="#0f172a">1  59 90123 45678  0</text>
</svg>