<svg xmlns="http://www.w3.org/2000/svg" viewBox="0 0 760 486" width="760" height="486" role="img">
<rect width="760" height="486" fill="#ffffff" stroke="#cbd5e1" stroke-width="2"/>
<text x="{x}" y="{y}" font-family="{betu or SANS}" font-size="{meret}" fill="{szin}" font-weight="{sulyt}" text-anchor="{igazit}">{xml(t)}</text>
<text x="{x}" y="{y}" font-family="{betu or SANS}" font-size="{meret}" fill="{szin}" font-weight="{sulyt}" text-anchor="{igazit}">{xml(t)}</text>
<text x="{x}" y="{y}" font-family="{betu or SANS}" font-size="{meret}" fill="{szin}" font-weight="{sulyt}" text-anchor="{igazit}">{xml(t)}</text>
<text x="{x}" y="{y}" font-family="{betu or SANS}" font-size="{meret}" fill="{szin}" font-weight="{sulyt}" text-anchor="{igazit}">{xml(t)}</text>
<line x1="28" y1="84" x2="732" y2="84" stroke="#cbd5e1" stroke-width="1.5"/>
<text x="{x}" y="{y}" font-family="{betu or SANS}" font-size="{meret}" fill="{szin}" font-weight="{sulyt}" text-anchor="{igazit}">{xml(t)}</text>
<text x="{x}" y="{y}" font-family="{betu or SANS}" font-size="{meret}" fill="{szin}" font-weight="{sulyt}" text-anchor="{igazit}">{xml(t)}</text>
<text x="{x}" y="{y}" font-family="{betu or SANS}" font-size="{meret}" fill="{szin}" font-weight="{sulyt}" text-anchor="{igazit}">{xml(t)}</text>
<text x="{x}" y="{y}" font-family="{betu or SANS}" font-size="{meret}" fill="{szin}" font-weight="{sulyt}" text-anchor="{igazit}">{xml(t)}</text>
<text x="{x}" y="{y}" font-family="{betu or SANS}" font-size="{meret}" fill="{szin}" font-weight="{sulyt}" text-anchor="{igazit}">{xml(t)}</text>
<text x="{x}" y="{y}" font-family="{betu or SANS}" font-size="{meret}" fill="{szin}" font-weight="{sulyt}" text-anchor="{igazit}">{xml(t)}</text>
<text x="{x}" y="{y}" font-family="{betu or SANS}" font-size="{meret}" fill="{szin}" font-weight="{sulyt}" text-anchor="{igazit}">{xml(t)}</text>
<text x="{x}" y="{y}" font-family="{betu or SANS}" font-size="{meret}" fill="{szin}" font-weight="{sulyt}" text-anchor="{igazit}">{xml(t)}</text>
<text x="{x}" y="{y}" font-family="{betu or SANS}" font-size="{meret}" fill="{szin}" font-weight="{sulyt}" text-anchor="{igazit}">{xml(t)}</text>
<rect x="28.0" y="272" width="3.4" height="84" fill="#000000"/>
<rect x="33.1" y="272" width="1.7" height="84" fill="#000000"/>
<rect x="38.2" y="272" width="5.1" height="84" fill="#000000"/>
<rect x="46.7" y="272" width="6.8" height="84" fill="#000000"/>
<rect x="55.2" y="272" width="1.7" height="84" fill="#000000"/>
<rect x="58.6" y="272" width="5.1" height="84" fill="#000000"/>
<rect x="65.4" y="272" width="3.4" height="84" fill="#000000"/>
<rect x="72.2" y="272" width="3.4" height="84" fill="#000000"/>
<rect x="77.3" y="272" width="3.4" height="84" fill="#000000"/>
<rect x="84.1" y="272" width="1.7" height="84" fill="#000000"/>
<rect x="87.5" y="272" width="5.1" height="84" fill="#000000"/>
<rect x="96.0" y="272" width="3.4" height="84" fill="#000000"/>
<rect x="102.8" y="272" width="1.7" height="84" fill="#000000"/>
<rect x="106.2" y="272" width="5.1" height="84" fill="#000000"/>
<rect x="113.0" y="272" width="6.8" height="84" fill="#000000"/>
<rect x="121.5" y="272" width="3.4" height="84" fill="#000000"/>
<rect x="128.3" y="272" width="3.4" height="84" fill="#000000"/>
<rect x="133.4" y="272" width="3.4" height="84" fill="#000000"/>
<rect x="140.2" y="272" width="5.1" height="84" fill="#000000"/>
<rect x="147.0" y="272" width="3.4" height="84" fill="#000000"/>
<rect x="152.1" y="272" width="5.1" height="84" fill="#000000"/>
<rect x="158.9" y="272" width="1.7" height="84" fill="#000000"/>
<rect x="162.3" y="272" width="5.1" height="84" fill="#000000"/>
<rect x="169.1" y="272" width="3.4" height="84" fill="#000000"/>
<rect x="177.6" y="272" width="1.7" height="84" fill="#000000"/>
<rect x="186.1" y="272" width="1.7" height="84" fill="#000000"/>
<rect x="189.5" y="272" width="3.4" height="84" fill="#000000"/>
<rect x="196.3" y="272" width="1.7" height="84" fill="#000000"/>
<rect x="199.7" y="272" width="1.7" height="84" fill="#000000"/>
<rect x="204.8" y="272" width="6.8" height="84" fill="#000000"/>
<rect x="215.0" y="272" width="3.4" height="84" fill="#000000"/>
<rect x="221.8" y="272" width="1.7" height="84" fill="#000000"/>
<rect x="228.6" y="272" width="1.7" height="84" fill="#000000"/>
<rect x="233.7" y="272" width="1.7" height="84" fill="#000000"/>
<rect x="237.1" y="272" width="6.8" height="84" fill="#000000"/>
<rect x="245.6" y="272" width="5.1" height="84" fill="#000000"/>
<rect x="252.4" y="272" width="1.7" height="84" fill="#000000"/>
<rect x="259.2" y="272" width="3.4" height="84" fill="#000000"/>
<rect x="264.3" y="272" width="5.1" height="84" fill="#000000"/>
<rect x="271.1" y="272" width="3.4" height="84" fill="#000000"/>
<rect x="277.9" y="272" width="5.1" height="84" fill="#000000"/>
<rect x="286.4" y="272" width="1.7" height="84" fill="#000000"/>
<rect x="289.8" y="272" width="3.4" height="84" fill="#000000"/>
<rect x="296.6" y="272" width="5.1" height="84" fill="#000000"/>
<rect x="303.4" y="272" width="1.7" height="84" fill="#000000"/>
<rect x="308.5" y="272" width="1.7" height="84" fill="#000000"/>
<rect x="313.6" y="272" width="5.1" height="84" fill="#000000"/>
<rect x="320.4" y="272" width="3.4" height="84" fill="#000000"/>
<rect x="327.2" y="272" width="5.1" height="84" fill="#000000"/>
<rect x="334.0" y="272" width="1.7" height="84" fill="#000000"/>
<rect x="339.1" y="272" width="3.4" height="84" fill="#000000"/>
<rect x="345.9" y="272" width="1.7" height="84" fill="#000000"/>
<rect x="349.3" y="272" width="1.7" height="84" fill="#000000"/>
<rect x="356.1" y="272" width="3.4" height="84" fill="#000000"/>
<rect x="364.6" y="272" width="6.8" height="84" fill="#000000"/>
<rect x="373.1" y="272" width="1.7" height="84" fill="#000000"/>
<rect x="376.5" y="272" width="5.1" height="84" fill="#000000"/>
<rect x="383.3" y="272" width="1.7" height="84" fill="#000000"/>
<rect x="386.7" y="272" width="5.1" height="84" fill="#000000"/>
<rect x="393.5" y="272" width="6.8" height="84" fill="#000000"/>
<rect x="402.0" y="272" width="1.7" height="84" fill="#000000"/>
<rect x="405.4" y="272" width="5.1" height="84" fill="#000000"/>
<rect x="413.9" y="272" width="3.4" height="84" fill="#000000"/>
<rect x="420.7" y="272" width="5.1" height="84" fill="#000000"/>
<rect x="427.5" y="272" width="3.4" height="84" fill="#000000"/>
<rect x="434.3" y="272" width="1.7" height="84" fill="#000000"/>
<rect x="439.4" y="272" width="3.4" height="84" fill="#000000"/>
<rect x="446.2" y="272" width="3.4" height="84" fill="#000000"/>
<rect x="451.3" y="272" width="3.4" height="84" fill="#000000"/>
<rect x="458.1" y="272" width="3.4" height="84" fill="#000000"/>
<rect x="463.2" y="272" width="3.4" height="84" fill="#000000"/>
<rect x="471.7" y="272" width="3.4" height="84" fill="#000000"/>
<rect x="476.8" y="272" width="1.7" height="84" fill="#000000"/>
<rect x="481.9" y="272" width="3.4" height="84" fill="#000000"/>
<rect x="488.7" y="272" width="5.1" height="84" fill="#000000"/>
<rect x="495.5" y="272" width="3.4" height="84" fill="#000000"/>
<rect x="504.0" y="272" width="5.1" height="84" fill="#000000"/>
<rect x="510.8" y="272" width="1.7" height="84" fill="#000000"/>
<rect x="514.2" y="272" width="3.4" height="84" fill="#000000"/>
<text x="{x}" y="{y}" font-family="{betu or SANS}" font-size="{meret}" fill="{szin}" font-weight="{sulyt}" text-anchor="{igazit}">{xml(t)}</text>
<text x="{x}" y="{y}" font-family="{betu or SANS}" font-size="{meret}" fill="{szin}" font-weight="{sulyt}" text-anchor="{igazit}">{xml(t)}</text>
<rect x="28" y="414" width="274" height="52" fill="#000000"/>
<rect x="36" y="422" width="258" height="36" fill="#ffffff"/>
<rect x="50.0" y="422" width="1.7" height="36" fill="#000000"/>
<rect x="53.4" y="422" width="1.7" height="36" fill="#000000"/>
<rect x="56.8" y="422" width="5.1" height="36" fill="#000000"/>
<rect x="67.0" y="422" width="1.7" height="36" fill="#000000"/>
<rect x="70.4" y="422" width="1.7" height="36" fill="#000000"/>
<rect x="77.2" y="422" width="1.7" height="36" fill="#000000"/>
<rect x="80.6" y="422" width="5.1" height="36" fill="#000000"/>
<rect x="87.4" y="422" width="1.7" height="36" fill="#000000"/>
<rect x="90.8" y="422" width="5.1" height="36" fill="#000000"/>
<rect x="101.0" y="422" width="1.7" height="36" fill="#000000"/>
<rect x="104.4" y="422" width="5.1" height="36" fill="#000000"/>
<rect x="114.6" y="422" width="1.7" height="36" fill="#000000"/>
<rect x="118.0" y="422" width="1.7" height="36" fill="#000000"/>
<rect x="124.8" y="422" width="1.7" height="36" fill="#000000"/>
<rect x="128.2" y="422" width="5.1" height="36" fill="#000000"/>
<rect x="135.0" y="422" width="5.1" height="36" fill="#000000"/>
<rect x="141.8" y="422" width="1.7" height="36" fill="#000000"/>
<rect x="148.6" y="422" width="1.7" height="36" fill="#000000"/>
<rect x="155.4" y="422" width="5.1" height="36" fill="#000000"/>
<rect x="165.6" y="422" width="1.7" height="36" fill="#000000"/>
<rect x="169.0" y="422" width="1.7" height="36" fill="#000000"/>
<rect x="172.4" y="422" width="5.1" height="36" fill="#000000"/>
<rect x="179.2" y="422" width="1.7" height="36" fill="#000000"/>
<rect x="186.0" y="422" width="1.7" height="36" fill="#000000"/>
<rect x="189.4" y="422" width="5.1" height="36" fill="#000000"/>
<rect x="199.6" y="422" width="1.7" height="36" fill="#000000"/>
<rect x="203.0" y="422" width="5.1" height="36" fill="#000000"/>
<rect x="209.8" y="422" width="1.7" height="36" fill="#000000"/>
<rect x="213.2" y="422" width="5.1" height="36" fill="#000000"/>
<rect x="220.0" y="422" width="5.1" height="36" fill="#000000"/>
<rect x="226.8" y="422" width="1.7" height="36" fill="#000000"/>
<rect x="233.6" y="422" width="1.7" height="36" fill="#000000"/>
<rect x="240.4" y="422" width="5.1" height="36" fill="#000000"/>
<rect x="247.2" y="422" width="1.7" height="36" fill="#000000"/>
<rect x="250.6" y="422" width="1.7" height="36" fill="#000000"/>
<rect x="257.4" y="422" width="5.1" height="36" fill="#000000"/>
<rect x="267.6" y="422" width="1.7" height="36" fill="#000000"/>
<rect x="271.0" y="422" width="5.1" height="36" fill="#000000"/>
<rect x="277.8" y="422" width="1.7" height="36" fill="#000000"/>
<text x="{x}" y="{y}" font-family="{betu or SANS}" font-size="{meret}" fill="{szin}" font-weight="{sulyt}" text-anchor="{igazit}">{xml(t)}</text>
</svg>