<svg xmlns="http://www.w3.org/2000/svg" viewBox="0 0 198 198" width="198" height="198" role="img">
<rect width="198" height="198" fill="#ffffff"/>
<rect x="24" y="24" width="42" height="6" fill="#000000"/>
<rect x="84" y="24" width="6" height="6" fill="#000000"/>
<rect x="96" y="24" width="12" height="6" fill="#000000"/>
<rect x="132" y="24" width="42" height="6" fill="#000000"/>
<rect x="24" y="30" width="6" height="6" fill="#000000"/>
<rect x="60" y="30" width="6" height="6" fill="#000000"/>
<rect x="84" y="30" width="6" height="6" fill="#000000"/>
<rect x="108" y="30" width="6" height="6" fill="#000000"/>
<rect x="132" y="30" width="6" height="6" fill="#000000"/>
<rect x="168" y="30" width="6" height="6" fill="#000000"/>
<rect x="24" y="36" width="6" height="6" fill="#000000"/>
<rect x="36" y="36" width="18" height="6" fill="#000000"/>
<rect x="60" y="36" width="6" height="6" fill="#000000"/>
<rect x="102" y="36" width="6" height="6" fill="#000000"/>
<rect x="114" y="36" width="12" height="6" fill="#000000"/>
<rect x="132" y="36" width="6" height="6" fill="#000000"/>
<rect x="144" y="36" width="18" height="6" fill="#000000"/>
<rect x="168" y="36" width="6" height="6" fill="#000000"/>
<rect x="24" y="42" width="6" height="6" fill="#000000"/>
<rect x="36" y="42" width="18" height="6" fill="#000000"/>
<rect x="60" y="42" width="6" height="6" fill="#000000"/>
<rect x="72" y="42" width="12" height="6" fill="#000000"/>
<rect x="96" y="42" width="6" height="6" fill="#000000"/>
<rect x="114" y="42" width="6" height="6" fill="#000000"/>
<rect x="132" y="42" width="6" height="6" fill="#000000"/>
<rect x="144" y="42" width="18" height="6" fill="#000000"/>
<rect x="168" y="42" width="6" height="6" fill="#000000"/>
<rect x="24" y="48" width="6" height="6" fill="#000000"/>
<rect x="36" y="48" width="18" height="6" fill="#000000"/>
<rect x="60" y="48" width="6" height="6" fill="#000000"/>
<rect x="84" y="48" width="30" height="6" fill="#000000"/>
<rect x="132" y="48" width="6" height="6" fill="#000000"/>
<rect x="144" y="48" width="18" height="6" fill="#000000"/>
<rect x="168" y="48" width="6" height="6" fill="#000000"/>
<rect x="24" y="54" width="6" height="6" fill="#000000"/>
<rect x="60" y="54" width="6" height="6" fill="#000000"/>
<rect x="72" y="54" width="6" height="6" fill="#000000"/>
<rect x="84" y="54" width="12" height="6" fill="#000000"/>
<rect x="132" y="54" width="6" height="6" fill="#000000"/>
<rect x="168" y="54" width="6" height="6" fill="#000000"/>
<rect x="24" y="60" width="42" height="6" fill="#000000"/>
<rect x="72" y="60" width="6" height="6" fill="#000000"/>
<rect x="84" y="60" width="6" height="6" fill="#000000"/>
<rect x="96" y="60" width="6" height="6" fill="#000000"/>
<rect x="108" y="60" width="6" height="6" fill="#000000"/>
<rect x="120" y="60" width="6" height="6" fill="#000000"/>
<rect x="132" y="60" width="42" height="6" fill="#000000"/>
<rect x="72" y="66" width="24" height="6" fill="#000000"/>
<rect x="114" y="66" width="12" height="6" fill="#000000"/>
<rect x="30" y="72" width="12" height="6" fill="#000000"/>
<rect x="60" y="72" width="6" height="6" fill="#000000"/>
<rect x="78" y="72" width="6" height="6" fill="#000000"/>
<rect x="96" y="72" width="18" height="6" fill="#000000"/>
<rect x="120" y="72" width="6" height="6" fill="#000000"/>
<rect x="132" y="72" width="12" height="6" fill="#000000"/>
<rect x="150" y="72" width="6" height="6" fill="#000000"/>
<rect x="24" y="78" width="6" height="6" fill="#000000"/>
<rect x="42" y="78" width="12" height="6" fill="#000000"/>
<rect x="66" y="78" width="6" height="6" fill="#000000"/>
<rect x="78" y="78" width="6" height="6" fill="#000000"/>
<rect x="90" y="78" width="6" height="6" fill="#000000"/>
<rect x="102" y="78" width="6" height="6" fill="#000000"/>
<rect x="114" y="78" width="6" height="6" fill="#000000"/>
<rect x="132" y="78" width="12" height="6" fill="#000000"/>
<rect x="150" y="78" width="6" height="6" fill="#000000"/>
<rect x="162" y="78" width="12" height="6" fill="#000000"/>
<rect x="48" y="84" width="6" height="6" fill="#000000"/>
<rect x="60" y="84" width="12" height="6" fill="#000000"/>
<rect x="78" y="84" width="6" height="6" fill="#000000"/>
<rect x="90" y="84" width="12" height="6" fill="#000000"/>
<rect x="114" y="84" width="6" height="6" fill="#000000"/>
<rect x="138" y="84" width="6" height="6" fill="#000000"/>
<rect x="150" y="84" width="12" height="6" fill="#000000"/>
<rect x="168" y="84" width="6" height="6" fill="#000000"/>
<rect x="24" y="90" width="6" height="6" fill="#000000"/>
<rect x="42" y="90" width="12" height="6" fill="#000000"/>
<rect x="66" y="90" width="12" height="6" fill="#000000"/>
<rect x="96" y="90" width="12" height="6" fill="#000000"/>
<rect x="150" y="90" width="6" height="6" fill="#000000"/>
<rect x="24" y="96" width="6" height="6" fill="#000000"/>
<rect x="48" y="96" width="6" height="6" fill="#000000"/>
<rect x="60" y="96" width="18" height="6" fill="#000000"/>
<rect x="96" y="96" width="12" height="6" fill="#000000"/>
<rect x="132" y="96" width="12" height="6" fill="#000000"/>
<rect x="168" y="96" width="6" height="6" fill="#000000"/>
<rect x="42" y="102" width="12" height="6" fill="#000000"/>
<rect x="72" y="102" width="12" height="6" fill="#000000"/>
<rect x="90" y="102" width="18" height="6" fill="#000000"/>
<rect x="114" y="102" width="30" height="6" fill="#000000"/>
<rect x="162" y="102" width="12" height="6" fill="#000000"/>
<rect x="24" y="108" width="18" height="6" fill="#000000"/>
<rect x="54" y="108" width="18" height="6" fill="#000000"/>
<rect x="84" y="108" width="12" height="6" fill="#000000"/>
<rect x="108" y="108" width="12" height="6" fill="#000000"/>
<rect x="132" y="108" width="6" height="6" fill="#000000"/>
<rect x="150" y="108" width="12" height="6" fill="#000000"/>
<rect x="168" y="108" width="6" height="6" fill="#000000"/>
<rect x="36" y="114" width="6" height="6" fill="#000000"/>
<rect x="48" y="114" width="12" height="6" fill="#000000"/>
<rect x="66" y="114" width="12" height="6" fill="#000000"/>
<rect x="84" y="114" width="18" height="6" fill="#000000"/>
<rect x="108" y="114" width="6" height="6" fill="#000000"/>
<rect x="126" y="114" width="6" height="6" fill="#000000"/>
<rect x="138" y="114" width="18" height="6" fill="#000000"/>
<rect x="24" y="120" width="12" height="6" fill="#000000"/>
<rect x="42" y="120" width="12" height="6" fill="#000000"/>
<rect x="60" y="120" width="12" height="6" fill="#000000"/>
<rect x="78" y="120" width="12" height="6" fill="#000000"/>
<rect x="96" y="120" width="54" height="6" fill="#000000"/>
<rect x="162" y="120" width="6" height="6" fill="#000000"/>
<rect x="72" y="126" width="12" height="6" fill="#000000"/>
<rect x="90" y="126" width="24" height="6" fill="#000000"/>
<rect x="120" y="126" width="6" height="6" fill="#000000"/>
<rect x="144" y="126" width="6" height="6" fill="#000000"/>
<rect x="168" y="126" width="6" height="6" fill="#000000"/>
<rect x="24" y="132" width="42" height="6" fill="#000000"/>
<rect x="90" y="132" width="18" height="6" fill="#000000"/>
<rect x="120" y="132" width="6" height="6" fill="#000000"/>
<rect x="132" y="132" width="6" height="6" fill="#000000"/>
<rect x="144" y="132" width="6" height="6" fill="#000000"/>
<rect x="168" y="132" width="6" height="6" fill="#000000"/>
<rect x="24" y="138" width="6" height="6" fill="#000000"/>
<rect x="60" y="138" width="6" height="6" fill="#000000"/>
<rect x="96" y="138" width="12" height="6" fill="#000000"/>
<rect x="114" y="138" width="12" height="6" fill="#000000"/>
<rect x="144" y="138" width="6" height="6" fill="#000000"/>
<rect x="168" y="138" width="6" height="6" fill="#000000"/>
<rect x="24" y="144" width="6" height="6" fill="#000000"/>
<rect x="36" y="144" width="18" height="6" fill="#000000"/>
<rect x="60" y="144" width="6" height="6" fill="#000000"/>
<rect x="84" y="144" width="24" height="6" fill="#000000"/>
<rect x="114" y="144" width="36" height="6" fill="#000000"/>
<rect x="162" y="144" width="12" height="6" fill="#000000"/>
<rect x="24" y="150" width="6" height="6" fill="#000000"/>
<rect x="36" y="150" width="18" height="6" fill="#000000"/>
<rect x="60" y="150" width="6" height="6" fill="#000000"/>
<rect x="84" y="150" width="6" height="6" fill="#000000"/>
<rect x="96" y="150" width="6" height="6" fill="#000000"/>
<rect x="114" y="150" width="18" height="6" fill="#000000"/>
<rect x="144" y="150" width="6" height="6" fill="#000000"/>
<rect x="156" y="150" width="12" height="6" fill="#000000"/>
<rect x="24" y="156" width="6" height="6" fill="#000000"/>
<rect x="36" y="156" width="18" height="6" fill="#000000"/>
<rect x="60" y="156" width="6" height="6" fill="#000000"/>
<rect x="72" y="156" width="6" height="6" fill="#000000"/>
<rect x="90" y="156" width="18" height="6" fill="#000000"/>
<rect x="120" y="156" width="12" height="6" fill="#000000"/>
<rect x="138" y="156" width="18" height="6" fill="#000000"/>
<rect x="162" y="156" width="12" height="6" fill="#000000"/>
<rect x="24" y="162" width="6" height="6" fill="#000000"/>
<rect x="60" y="162" width="6" height="6" fill="#000000"/>
<rect x="72" y="162" width="6" height="6" fill="#000000"/>
<rect x="90" y="162" width="6" height="6" fill="#000000"/>
<rect x="102" y="162" width="30" height="6" fill="#000000"/>
<rect x="138" y="162" width="12" height="6" fill="#000000"/>
<rect x="24" y="168" width="42" height="6" fill="#000000"/>
<rect x="78" y="168" width="18" height="6" fill="#000000"/>
<rect x="102" y="168" width="6" height="6" fill="#000000"/>
<rect x="120" y="168" width="6" height="6" fill="#000000"/>
<rect x="132" y="168" width="6" height="6" fill="#000000"/>
<rect x="150" y="168" width="6" height="6" fill="#000000"/>
<rect x="168" y="168" width="6" height="6" fill="#000000"/>
</svg>